<svg xmlns="http://www.w3.org/2000/svg" width="1200" height="640" viewBox="0 0 1200 640"><defs><marker id="a" markerWidth="9" markerHeight="9" refX="8" refY="3" orient="auto"><path d="M0 0L0 6L9 3z" fill="#64748b"/></marker><style>.t{font:700 22px sans-serif;fill:#172033}.s{font:16px sans-serif;fill:#475569}.h{fill:#dbeafe;stroke:#2563eb;stroke-width:2}.ai{fill:#dcfce7;stroke:#16a34a;stroke-width:2}.o{fill:#ffedd5;stroke:#ea580c;stroke-width:2}.n{fill:#f1f5f9;stroke:#94a3b8;stroke-width:2}.lg{fill:#ffffff;stroke:#cbd5e1;stroke-width:2}</style></defs><rect width="1200" height="640" rx="24" fill="#f8fafc"/><text x="600" y="43" text-anchor="middle" class="t">金字塔结构：结论先行，以上统下</text><rect x="440" y="80" width="320" height="72" rx="15" class="o"/><text x="600" y="112" text-anchor="middle" class="t">中心思想（结论）</text><text x="600" y="138" text-anchor="middle" class="s">一句话概括全部内容</text><rect x="225" y="225" width="250" height="80" rx="15" class="h"/><text x="350" y="255" text-anchor="middle" class="t">论点 A</text><text x="350" y="285" text-anchor="middle" class="s">对结论的一个支撑</text><rect x="515" y="225" width="250" height="80" rx="15" class="h"/><text x="640" y="255" text-anchor="middle" class="t">论点 B</text><text x="640" y="285" text-anchor="middle" class="s">对结论的一个支撑</text><rect x="805" y="225" width="250" height="80" rx="15" class="h"/><text x="930" y="255" text-anchor="middle" class="t">论点 C</text><text x="930" y="285" text-anchor="middle" class="s">对结论的一个支撑</text><rect x="188" y="395" width="130" height="74" rx="12" class="n"/><text x="253" y="426" text-anchor="middle" class="s" font-weight="700">论据 A1</text><text x="253" y="452" text-anchor="middle" class="s">事实 / 数据</text><rect x="343" y="395" width="130" height="74" rx="12" class="n"/><text x="408" y="426" text-anchor="middle" class="s" font-weight="700">论据 A2</text><text x="408" y="452" text-anchor="middle" class="s">事实 / 数据</text><rect x="498" y="395" width="130" height="74" rx="12" class="n"/><text x="563" y="426" text-anchor="middle" class="s" font-weight="700">论据 B1</text><text x="563" y="452" text-anchor="middle" class="s">事实 / 数据</text><rect x="653" y="395" width="130" height="74" rx="12" class="n"/><text x="718" y="426" text-anchor="middle" class="s" font-weight="700">论据 B2</text><text x="718" y="452" text-anchor="middle" class="s">事实 / 数据</text><rect x="808" y="395" width="130" height="74" rx="12" class="n"/><text x="873" y="426" text-anchor="middle" class="s" font-weight="700">论据 C1</text><text x="873" y="452" text-anchor="middle" class="s">事实 / 数据</text><rect x="963" y="395" width="130" height="74" rx="12" class="n"/><text x="1028" y="426" text-anchor="middle" class="s" font-weight="700">论据 C2</text><text x="1028" y="452" text-anchor="middle" class="s">事实 / 数据</text><path d="M600 152 L355 221" stroke="#64748b" stroke-width="3" fill="none" marker-end="url(#a)"/><path d="M600 152 L640 221" stroke="#64748b" stroke-width="3" fill="none" marker-end="url(#a)"/><path d="M600 152 L925 221" stroke="#64748b" stroke-width="3" fill="none" marker-end="url(#a)"/><path d="M290 305 L253 391" stroke="#64748b" stroke-width="3" fill="none" marker-end="url(#a)"/><path d="M410 305 L408 391" stroke="#64748b" stroke-width="3" fill="none" marker-end="url(#a)"/><path d="M585 305 L563 391" stroke="#64748b" stroke-width="3" fill="none" marker-end="url(#a)"/><path d="M695 305 L718 391" stroke="#64748b" stroke-width="3" fill="none" marker-end="url(#a)"/><path d="M875 305 L873 391" stroke="#64748b" stroke-width="3" fill="none" marker-end="url(#a)"/><path d="M985 305 L1028 391" stroke="#64748b" stroke-width="3" fill="none" marker-end="url(#a)"/><text x="1188" y="192" text-anchor="end" class="s">纵向：疑问 → 回答</text><text x="1188" y="372" text-anchor="end" class="s">上层是下层的概括</text><rect x="51" y="510" width="252" height="64" rx="12" class="lg"/><text x="177" y="537" text-anchor="middle" class="t" font-size="19">结论先行</text><text x="177" y="562" text-anchor="middle" class="s">先给答案，再给理由</text><rect x="333" y="510" width="252" height="64" rx="12" class="lg"/><text x="459" y="537" text-anchor="middle" class="t" font-size="19">以上统下</text><text x="459" y="562" text-anchor="middle" class="s">上层概括下层</text><rect x="615" y="510" width="252" height="64" rx="12" class="lg"/><text x="741" y="537" text-anchor="middle" class="t" font-size="19">归类分组</text><text x="741" y="562" text-anchor="middle" class="s">同层属同一范畴</text><rect x="897" y="510" width="252" height="64" rx="12" class="lg"/><text x="1023" y="537" text-anchor="middle" class="t" font-size="19">逻辑递进</text><text x="1023" y="562" text-anchor="middle" class="s">同层按顺序展开</text></svg>
